<svg width="19" height="19" viewBox="0 0 19 19" fill="none" xmlns="http://www.w3.org/2000/svg">
<path fill-rule="evenodd" clip-rule="evenodd" d="M16.6127 15.4989L12.5601 11.4463C13.2772 10.4966 13.7025 9.31419 13.7025 8.03244C13.7025 4.90099 11.164 2.36244 8.03255 2.36244C4.90109 2.36244 2.36255 4.90099 2.36255 8.03244C2.36255 11.1639 4.90109 13.7024 8.03255 13.7024C9.3143 13.7024 10.4967 13.2771 11.4464 12.56L15.4991 16.6126L16.6127 15.4989ZM12.1275 8.03245C12.1275 10.2941 10.2941 12.1274 8.03248 12.1274C5.77087 12.1274 3.93748 10.2941 3.93748 8.03245C3.93748 5.77084 5.77087 3.93745 8.03248 3.93745C10.2941 3.93745 12.1275 5.77084 12.1275 8.03245Z" fill="#202C43"/>
</svg>
